<svg width="128" height="128" viewBox="0 0 128 128" fill="none" xmlns="http://www.w3.org/2000/svg">
<g clip-path="url(#clip0_844_60)">
<rect width="128" height="128" fill="black"/>
<path fill-rule="evenodd" clip-rule="evenodd" d="M16 100C16 97.7909 17.7909 96 20 96H76C78.2091 96 80 97.7909 80 100C80 102.209 78.2091 104 76 104H20C17.7909 104 16 102.209 16 100Z" fill="white"/>
<path fill-rule="evenodd" clip-rule="evenodd" d="M16 76C16 73.7909 17.7909 72 20 72H108C110.209 72 112 73.7909 112 76C112 78.2091 110.209 80 108 80H20C17.7909 80 16 78.2091 16 76Z" fill="white"/>
<path fill-rule="evenodd" clip-rule="evenodd" d="M16 52C16 49.7909 17.7909 48 20 48H108C110.209 48 112 49.7909 112 52C112 54.2091 110.209 56 108 56H20C17.7909 56 16 54.2091 16 52Z" fill="white"/>
<path fill-rule="evenodd" clip-rule="evenodd" d="M48 28C48 25.7909 49.7909 24 52 24H108C110.209 24 112 25.7909 112 28C112 30.2091 110.209 32 108 32H52C49.7909 32 48 30.2091 48 28Z" fill="white"/>
</g>
<defs>
<clipPath id="clip0_844_60">
<rect width="128" height="128" fill="white"/>
</clipPath>
</defs>
</svg>
